<svg width="17" height="17" viewBox="0 0 17 17" fill="none" xmlns="http://www.w3.org/2000/svg">
<rect x="0.5" y="0.830566" width="16" height="16" rx="8" fill="#7FA1C2"/>
<path d="M5.65687 6.31885C5.1987 6.31885 4.82945 5.9217 4.95726 5.48172C5.14063 4.85049 5.46998 4.32485 5.94531 3.90479C6.6224 3.30583 7.47917 3.00635 8.51562 3.00635C9.61458 3.00635 10.5026 3.30062 11.1797 3.88916C11.8568 4.47249 12.1953 5.21729 12.1953 6.12354C12.1953 6.63395 12.0781 7.10791 11.8438 7.54541C11.6146 7.98291 11.1797 8.46729 10.5391 8.99854C9.89844 9.52979 9.50521 9.95426 9.35938 10.272C9.26403 10.4763 9.19985 10.7708 9.16684 11.1554C9.13438 11.5338 8.83282 11.8423 8.45312 11.8423C8.07343 11.8423 7.76152 11.534 7.78725 11.1552C7.82966 10.5308 7.93443 10.0516 8.10156 9.71729C8.32552 9.26416 8.73698 8.78239 9.33594 8.27197C9.9401 7.76156 10.3151 7.37093 10.4609 7.1001C10.6068 6.82406 10.6797 6.53239 10.6797 6.2251C10.6797 5.62614 10.4818 5.13395 10.0859 4.74854C9.6901 4.35791 9.17188 4.1626 8.53125 4.1626C7.4878 4.1626 6.80365 4.66344 6.4788 5.66513C6.35971 6.03233 6.0429 6.31885 5.65687 6.31885ZM9.30469 13.854C9.30469 14.2963 8.94617 14.6548 8.50391 14.6548C8.06165 14.6548 7.70312 14.2963 7.70312 13.854C7.70312 13.4117 8.06165 13.0532 8.50391 13.0532C8.94617 13.0532 9.30469 13.4117 9.30469 13.854Z" fill="white"/>
</svg>
